<svg width="148" height="68" viewBox="0 0 148 68" fill="none" xmlns="http://www.w3.org/2000/svg">
<mask id="mask0_4259_43920" style="mask-type:luminance" maskUnits="userSpaceOnUse" x="0" y="0" width="148" height="68">
<path d="M148 0.274414H0V67.1842H148V0.274414Z" fill="white"/>
</mask>
<g mask="url(#mask0_4259_43920)">
<path d="M114.366 35.4034H126.684V37.644H121.651V50.5525H119.394V37.644H114.361V35.4034H114.366ZM100.8 35.4034H108.804C109.493 35.4034 110.114 35.5736 110.682 35.9089C111.245 36.2491 111.696 36.7011 112.036 37.2552C112.371 37.8189 112.541 38.4459 112.541 39.136V40.6476C112.541 41.3377 112.376 41.9598 112.046 42.5138C111.721 43.0679 111.269 43.5053 110.706 43.8358C110.134 44.1615 109.503 44.3267 108.794 44.3267L113.308 50.5574H110.575L106.061 44.3267H104.329V42.0862H108.809C109.231 42.0862 109.585 41.9452 109.871 41.6585C110.163 41.3717 110.308 41.0267 110.308 40.6184V39.1409C110.308 38.7278 110.168 38.373 109.871 38.0863C109.585 37.7946 109.231 37.6488 108.809 37.6488H103.052V50.5574H100.81V35.4034H100.8ZM90.6762 35.4034H93.4717L98.893 50.5525H96.5003L94.8501 45.9889H90.6276L91.4382 43.758H94.0396L92.0837 38.3438L87.6574 50.5525H85.2646L90.6762 35.4034ZM69.4716 35.4034H71.5246L76.4071 41.3814L81.2897 35.4034H83.3427V50.5525H81.1004V39.2284L77.3487 43.7921H75.485L71.7187 39.2284V50.5525H69.4765V35.4034H69.4716ZM54.3823 39.068C54.3823 38.3925 54.5474 37.7801 54.8871 37.2309C55.2268 36.6768 55.6782 36.2297 56.246 35.9041C56.8188 35.5687 57.44 35.4083 58.134 35.4083H65.9577V37.6488H58.134C57.7215 37.6488 57.3672 37.7898 57.0663 38.0863C56.7751 38.373 56.6246 38.7278 56.6246 39.1409V40.181C56.6246 40.5552 56.7751 40.8808 57.0663 41.1481C57.3672 41.4203 57.7166 41.5564 58.134 41.5564H62.9535C63.6475 41.5564 64.2785 41.7216 64.8415 42.0521C65.4142 42.3778 65.8607 42.8298 66.2004 43.379C66.5353 43.9379 66.7052 44.5551 66.7052 45.2307V46.8783C66.7052 47.5587 66.5353 48.1711 66.2004 48.73C65.8607 49.2889 65.4093 49.7312 64.8415 50.0665C64.2785 50.3922 63.6475 50.5574 62.9535 50.5574H54.3872V48.312H62.9535C63.366 48.312 63.7203 48.1711 64.0212 47.8892C64.3124 47.6122 64.4629 47.272 64.4629 46.8734V45.2404C64.4629 44.8467 64.3124 44.5065 64.0212 44.2198C63.7203 43.9427 63.3709 43.7969 62.9535 43.7969H58.134C57.44 43.7969 56.8139 43.6317 56.246 43.3061C55.6733 42.9853 55.2268 42.5527 54.8871 41.9987C54.5474 41.4543 54.3823 40.8565 54.3823 40.1858V39.068ZM137.162 24.3855C137.162 23.8071 137.313 23.2871 137.599 22.8205C137.885 22.3491 138.274 21.9748 138.74 21.7027C139.22 21.4256 139.754 21.2896 140.331 21.2896H146.806V23.535H140.331C140.079 23.535 139.861 23.6176 139.676 23.7877C139.502 23.9529 139.404 24.1571 139.404 24.3855V24.6528C139.404 24.8958 139.502 25.0999 139.676 25.27C139.861 25.4401 140.079 25.5228 140.331 25.5228H144.355C144.937 25.5228 145.471 25.6637 145.947 25.9456C146.427 26.2323 146.811 26.6066 147.087 27.0683C147.374 27.5397 147.514 28.0646 147.514 28.6332V29.2116C147.514 29.7754 147.374 30.3003 147.087 30.7717C146.811 31.248 146.427 31.6222 145.947 31.9041C145.471 32.1812 144.942 32.327 144.355 32.327H137.667V30.0816H144.355C144.612 30.0816 144.831 29.9941 145.005 29.824C145.19 29.6539 145.277 29.4498 145.277 29.2067V28.6576C145.277 28.4048 145.19 28.1958 145.005 28.0257C144.831 27.8605 144.612 27.773 144.355 27.773H140.331C139.754 27.773 139.225 27.6369 138.74 27.3502C138.269 27.0731 137.881 26.6941 137.599 26.2226C137.313 25.7512 137.162 25.236 137.162 24.6625V24.3855ZM124.577 24.3855C124.577 23.8071 124.718 23.2871 125.014 22.8205C125.3 22.3491 125.679 21.9748 126.155 21.7027C126.635 21.4256 127.169 21.2896 127.747 21.2896H134.221V23.535H127.747C127.494 23.535 127.276 23.6176 127.096 23.7877C126.912 23.9529 126.824 24.1571 126.824 24.3855V24.6528C126.824 24.8958 126.912 25.0999 127.096 25.27C127.281 25.4401 127.499 25.5228 127.747 25.5228H131.77C132.348 25.5228 132.877 25.6637 133.362 25.9456C133.838 26.2323 134.226 26.6066 134.503 27.0683C134.789 27.5397 134.93 28.0646 134.93 28.6332V29.2116C134.93 29.7754 134.789 30.3003 134.503 30.7717C134.226 31.248 133.838 31.6222 133.362 31.9041C132.881 32.1812 132.348 32.327 131.77 32.327H125.082V30.0816H131.77C132.022 30.0816 132.241 29.9941 132.42 29.824C132.605 29.6539 132.692 29.4498 132.692 29.2067V28.6576C132.692 28.4048 132.605 28.1958 132.42 28.0257C132.236 27.8605 132.018 27.773 131.77 27.773H127.747C127.169 27.773 126.64 27.6369 126.155 27.3502C125.679 27.0731 125.296 26.6941 125.014 26.2226C124.723 25.7512 124.577 25.236 124.577 24.6625V24.3855ZM112.216 23.5641C112.216 22.9323 112.449 22.3928 112.905 21.9457C113.366 21.5034 113.919 21.2847 114.565 21.2847H119.166C119.748 21.2847 120.287 21.4256 120.762 21.7124C121.238 21.9991 121.626 22.388 121.913 22.8788C122.199 23.36 122.34 23.8995 122.34 24.4924V24.7986C122.34 25.3818 122.199 25.9164 121.913 26.3927C121.626 26.869 121.238 27.2578 120.762 27.5446C120.287 27.8313 119.748 27.9723 119.166 27.9723H115.734V25.7317H119.19C119.442 25.7317 119.661 25.6443 119.84 25.4596C120.025 25.2749 120.107 25.0513 120.107 24.7937V24.4924C120.107 24.2202 120.025 23.9967 119.84 23.8023C119.656 23.6176 119.438 23.5301 119.19 23.5301H114.463V29.1922C114.463 29.44 114.545 29.6442 114.705 29.8094C114.87 29.9795 115.065 30.067 115.298 30.067H121.568V32.3124H115.298C114.735 32.3124 114.215 32.1714 113.749 31.8896C113.279 31.6077 112.905 31.2334 112.633 30.7571C112.356 30.2857 112.22 29.7608 112.22 29.197V23.5641H112.216ZM99.5385 23.5204C99.5385 22.9031 99.7569 22.3782 100.203 21.9408C100.645 21.5034 101.174 21.2896 101.8 21.2896H105.683C106.411 21.2896 107.081 21.4645 107.683 21.829C108.289 22.1838 108.765 22.665 109.124 23.2725C109.483 23.8703 109.663 24.541 109.663 25.2749V32.327H107.42V25.2992C107.42 24.8083 107.251 24.3806 106.916 24.0307C106.576 23.6856 106.168 23.5155 105.688 23.5155H101.786V32.327H99.5434V23.5204H99.5385ZM94.7288 21.2847H96.9808V32.3221H94.7288V21.2847ZM94.4715 18.2811C94.4715 17.8923 94.6026 17.5667 94.8792 17.2945C95.1462 17.0272 95.4713 16.8911 95.8499 16.8911C96.2382 16.8911 96.5585 17.0272 96.8303 17.2945C97.1021 17.5667 97.238 17.8923 97.238 18.2811C97.238 18.6651 97.1021 18.9907 96.8303 19.2532C96.5585 19.5253 96.2382 19.6614 95.8499 19.6614C95.4713 19.6614 95.1413 19.5253 94.8792 19.2532C94.6026 18.9907 94.4715 18.6651 94.4715 18.2811ZM81.9303 24.3855C81.9303 23.8071 82.0711 23.2871 82.3574 22.8205C82.6486 22.3491 83.032 21.9748 83.5077 21.7027C83.9882 21.4256 84.522 21.2896 85.0996 21.2896H91.574V23.535H85.0996C84.8472 23.535 84.6288 23.6176 84.4492 23.7877C84.2648 23.9529 84.1774 24.1571 84.1774 24.3855V24.6528C84.1774 24.8958 84.2648 25.0999 84.4492 25.27C84.6337 25.4401 84.8521 25.5228 85.0996 25.5228H89.1231C89.7006 25.5228 90.2297 25.6637 90.715 25.9456C91.1906 26.2323 91.574 26.6066 91.8555 27.0683C92.1419 27.5397 92.2826 28.0646 92.2826 28.6332V29.2116C92.2826 29.7754 92.1419 30.3003 91.8555 30.7717C91.5692 31.248 91.1906 31.6222 90.715 31.9041C90.2345 32.1812 89.7006 32.327 89.1231 32.327H82.4351V30.0816H89.1231C89.3755 30.0816 89.5939 29.9941 89.7734 29.824C89.9579 29.6539 90.0452 29.4498 90.0452 29.2067V28.6576C90.0452 28.4048 89.9579 28.1958 89.7734 28.0257C89.589 27.8605 89.3706 27.773 89.1231 27.773H85.0996C84.522 27.773 83.993 27.6369 83.5077 27.3502C83.032 27.0731 82.6486 26.6941 82.3574 26.2226C82.0711 25.7512 81.9303 25.236 81.9303 24.6625V24.3855ZM69.36 21.2847H71.6023V28.3028C71.6023 28.7985 71.7721 29.2213 72.1119 29.5713C72.4516 29.9163 72.8593 30.0962 73.3349 30.0962H77.2371V21.2847H79.4793V30.0816C79.4793 30.6988 79.2609 31.2237 78.8193 31.666C78.3825 32.1034 77.8486 32.3173 77.2128 32.3173H73.3301C72.5972 32.3173 71.9371 32.1423 71.3256 31.7778C70.7286 31.4181 70.2433 30.9321 69.889 30.3343C69.5298 29.7268 69.3503 29.0609 69.3503 28.3271V21.2847H69.36ZM63.1864 30.0767C63.599 30.0767 63.9484 29.9358 64.2396 29.6539C64.526 29.3769 64.6764 29.0366 64.6764 28.6332V26.9565C64.6764 26.5628 64.526 26.2226 64.2396 25.9359C63.9484 25.6588 63.5941 25.513 63.1719 25.513H58.1146V23.2725H62.5555C62.9777 23.2725 63.3369 23.1364 63.6426 22.8642C63.9436 22.5921 64.0892 22.2567 64.0892 21.8679V20.8959C64.0892 20.4876 63.9387 20.1328 63.6426 19.8412C63.3369 19.5496 62.9777 19.4038 62.5555 19.4038H56.8382V30.0719H63.1864V30.0767ZM54.591 17.173H62.5506C63.2592 17.173 63.895 17.3383 64.4629 17.6687C65.0259 18.0041 65.4821 18.4512 65.817 19.0101C66.1567 19.5739 66.3266 20.2009 66.3266 20.8959V21.8922C66.3266 22.8788 66.0402 23.6273 65.4675 24.1376C65.9771 24.4632 66.346 24.852 66.5693 25.304C66.7925 25.7609 66.909 26.3198 66.909 26.9905V28.6673C66.909 29.3331 66.7391 29.9455 66.4042 30.4995C66.0645 31.0487 65.6083 31.4959 65.0453 31.8264C64.4823 32.1617 63.8513 32.3221 63.1622 32.3221H54.591V17.173Z" fill="#1E1E1E"/>
</g>
<mask id="mask1_4259_43920" style="mask-type:luminance" maskUnits="userSpaceOnUse" x="0" y="0" width="148" height="68">
<path d="M148 0.274414H0V67.1842H148V0.274414Z" fill="white"/>
</mask>
<g mask="url(#mask1_4259_43920)">
<path d="M3.64968 59.3883C3.68366 60.3798 3.8147 63.3736 10.658 63.4806H27.3635L29.3437 63.3833C33.901 62.319 36.6383 60.5645 39.1087 57.1332C42.1227 52.9389 42.7245 46.3582 40.5453 41.4835C39.9872 40.2393 39.2592 39.1215 38.3904 38.1689C35.8133 35.3354 32.7605 34.3974 29.2272 33.3136L28.7855 33.1775L14.5505 28.7936C10.5173 27.4911 8.54677 24.4827 8.67781 19.8461L8.62929 6.08213L26.5384 6.06755H26.5529C29.0476 6.15503 31.1685 6.69451 32.8478 7.66654C35.8132 9.38218 37.5605 12.6045 37.512 16.2739C37.4925 17.7854 37.1382 19.3115 36.4442 20.8133L39.5892 21.761C40.623 20.1328 41.2054 18.2228 41.2734 16.1912C41.3898 12.8961 40.0357 9.34816 37.8129 7.15137C35.8909 5.23647 32.9983 4.18181 28.9748 3.92908H3.68366L3.70306 17.6687C3.6157 23.5252 5.48428 27.6029 9.41554 30.135L29.0282 36.6039C33.1002 37.9647 35.9152 40.4483 37.3906 43.9913C38.2206 45.984 38.5749 48.2731 38.3904 50.4262C38.1817 52.8222 37.3227 54.9072 35.9006 56.4576C33.7603 58.8002 30.2852 60.1076 25.2959 60.4624H25.2571L8.23131 60.4575L8.15849 44.351C6.69762 43.7435 5.20763 42.9561 3.64968 41.9549V59.3883ZM0.485248 34.9612C3.40215 38.5577 7.77993 40.9926 11.3763 42.1104V57.2644H23.6118C25.6357 57.2644 26.917 57.2644 28.9214 56.7589C32.9109 55.7675 34.6873 53.8769 35.0318 50.9851C35.3328 48.487 35.4395 45.8333 33.3332 43.2234C30.9453 40.2636 28.6836 39.8651 25.2959 38.7715L13.7108 35C9.40582 33.5954 6.785 33.1872 3.83897 29.3234C1.57728 26.3538 0.562898 22.665 0.48039 18.9567V0.760254H29.2806C38.4923 1.35805 41.6325 5.7079 43.3603 9.99941C45.0202 14.1257 45.1609 21.2264 40.5502 25.5568C38.3079 24.4244 34.4058 23.5009 31.5277 22.874C34.3281 18.8643 35.4444 15.0588 32.9691 11.9532C31.6781 10.325 29.6494 9.28497 26.8102 9.27039H11.7937V18.9567C11.8228 22.8837 11.9296 24.2251 15.2736 25.6637L29.5621 30.0962C33.4642 31.3015 35.7404 31.6222 38.9437 34.3439C45.0541 39.5589 45.3211 46.1298 44.8261 50.6692C44.2194 56.0883 40.7249 63.1744 32.1247 65.9592C30.1396 66.6056 29.2369 66.6931 27.1936 66.6931H10.3037C5.97933 66.4938 1.77141 65.3809 0.674538 61.0164C0.490108 60.2826 0.470703 59.7042 0.470703 59.0335V58.9946V58.3871V34.9612H0.485248Z" fill="#4FAE47"/>
</g>
</svg>
