<svg width="31" height="45" viewBox="0 0 31 45" fill="none" xmlns="http://www.w3.org/2000/svg">
<path d="M2.82879 39.8101C2.85162 40.4764 2.93969 42.4884 7.53867 42.5603H18.7654L20.0962 42.4949C23.1589 41.7796 24.9985 40.6005 26.6587 38.2946C28.6842 35.4758 29.0887 31.0534 27.6242 27.7773C27.2491 26.9412 26.7598 26.19 26.176 25.5498C24.444 23.6456 22.3924 23.0152 20.0179 22.2868L19.7211 22.1954L10.1546 19.2492C7.44409 18.3739 6.11983 16.3521 6.2079 13.2361L6.17529 3.98618L18.2109 3.97639H18.2207C19.8972 4.03518 21.3226 4.39773 22.4511 5.05098C24.444 6.20395 25.6182 8.36945 25.5856 10.8355C25.5726 11.8512 25.3345 12.8768 24.868 13.8861L26.9816 14.523C27.6764 13.4288 28.0678 12.1452 28.1134 10.7799C28.1917 8.56542 27.2817 6.18109 25.7878 4.70476C24.4962 3.41787 22.5522 2.70909 19.8483 2.53925H2.85162L2.86466 11.7729C2.80595 15.7087 4.06171 18.449 6.70368 20.1507L19.8842 24.4981C22.6207 25.4126 24.5125 27.0816 25.5041 29.4627C26.0618 30.8019 26.2999 32.3403 26.176 33.7872C26.0357 35.3974 25.4584 36.7986 24.5027 37.8406C23.0643 39.4149 20.7289 40.2935 17.3759 40.5319H17.3498L5.90782 40.5287L5.85889 29.7044C4.87712 29.2961 3.87579 28.767 2.82879 28.0942V39.8101ZM0.702158 23.3941C2.66243 25.8111 5.60448 27.4474 8.0214 28.1987V38.3828H16.2441C17.6043 38.3828 18.4653 38.3828 19.8124 38.0431C22.4935 37.3768 23.6873 36.1062 23.9189 34.1628C24.1211 32.484 24.1929 30.7006 22.7773 28.9467C21.1725 26.9575 19.6526 26.6897 17.3759 25.9548L9.59027 23.4202C6.69715 22.4763 4.93584 22.2019 2.956 19.6053C1.43605 17.6096 0.754341 15.1305 0.698893 12.6384V0.409668H20.0538C26.2445 0.811413 28.3548 3.73468 29.516 6.61876C30.6315 9.39178 30.726 14.1637 27.6274 17.0739C26.1205 16.3129 23.4981 15.6923 21.5639 15.271C23.4459 12.5763 24.1961 10.0189 22.5327 7.93178C21.665 6.83759 20.3017 6.13862 18.3936 6.12882H8.3019V12.6384C8.32147 15.2775 8.39324 16.179 10.6405 17.1458L20.243 20.1246C22.8654 20.9346 24.3951 21.1502 26.5478 22.9793C30.6543 26.4839 30.8337 30.8999 30.501 33.9505C30.0933 37.5923 27.7448 42.3545 21.9651 44.226C20.6311 44.6604 20.0244 44.7192 18.6513 44.7192H7.30057C4.39441 44.5853 1.56651 43.8373 0.829368 40.9043C0.705424 40.4111 0.692383 40.0224 0.692383 39.5717V39.5455V39.1373V23.3941H0.702158Z" fill="#4FAE47"/>
</svg>
